<svg xmlns="http://www.w3.org/2000/svg" viewBox="0 0 1000 1000"><defs><style>.cls-1{fill:#fff;}</style></defs><g id="Layer_2" data-name="Layer 2"><g id="Layer_1-2" data-name="Layer 1"><rect width="1000" height="1000"/><path class="cls-1" d="M705.83,367a121.83,121.83,0,0,0-36.73-87c-47.83-46.9-125.83-46-173.88,2.08l-194,194a24,24,0,0,0,34,34L530.45,314.81A74,74,0,0,1,583.18,293h.91a74,74,0,0,1,53.12,23.11c27.73,29.06,26.8,76.18-2.06,105l-49.68,49.68,17,17a74.44,74.44,0,0,1,0,105.12l-91.92,91.92a73.6,73.6,0,0,1-52.44,21.73h-1a73.75,73.75,0,0,1-52.92-23c-27.62-28.95-26.7-75.89,2.05-104.64L600.88,384.28a24,24,0,0,0-34-34L372.66,544.5c-47.94,47.94-48.87,125.77-2.07,173.49a121.55,121.55,0,0,0,86.83,36.64H458a121.62,121.62,0,0,0,86.55-35.78l91.9-91.92A123,123,0,0,0,657,481l-4.87-8.79L670,454.31A121.78,121.78,0,0,0,705.83,367Z"/><path class="cls-1" d="M440.52,649.39a24.06,24.06,0,0,0,34,0l92.77-92.78a24.08,24.08,0,0,0,0-34l-17-17L440.52,615.38A24,24,0,0,0,439,647.65v.17Z"/></g></g></svg>